<?xml version="1.0" encoding="UTF-8"?>
<svg xmlns="http://www.w3.org/2000/svg" xmlns:xlink="http://www.w3.org/1999/xlink" width="47pt" height="47pt" viewBox="0 0 47 47" version="1.1">
<g id="surface6937">
<path style=" stroke:none;fill-rule:evenodd;fill:rgb(100%,100%,100%);fill-opacity:1;" d="M 0.285156 0.285156 L 0.285156 46.015625 L 46.015625 46.015625 L 46.015625 0.285156 Z M 0.285156 0.285156 "/>
<path style="fill-rule:evenodd;fill:rgb(100%,100%,100%);fill-opacity:1;stroke-width:0.8;stroke-linecap:butt;stroke-linejoin:round;stroke:rgb(0%,0%,0%);stroke-opacity:1;stroke-miterlimit:10;" d="M 48.001231 671.998769 L 43.999442 664.000658 L 52.000287 664.000658 Z M 48.001231 671.998769 " transform="matrix(1.429048,0,0,-1.429048,-45.44374,983.471119)"/>
<path style="fill:none;stroke-width:0.8;stroke-linecap:butt;stroke-linejoin:round;stroke:rgb(0%,0%,0%);stroke-opacity:1;stroke-miterlimit:10;" d="M 40.000387 664.000658 L 55.999342 664.000658 Z M 40.000387 664.000658 " transform="matrix(1.429048,0,0,-1.429048,-45.44374,983.471119)"/>
<path style="fill-rule:evenodd;fill:rgb(100%,100%,100%);fill-opacity:1;stroke-width:0.4;stroke-linecap:butt;stroke-linejoin:round;stroke:rgb(0%,0%,0%);stroke-opacity:1;stroke-miterlimit:10;" d="M 43.999442 664.000658 L 40.000387 659.998869 Z M 43.999442 664.000658 " transform="matrix(1.429048,0,0,-1.429048,-45.44374,983.471119)"/>
<path style="fill-rule:evenodd;fill:rgb(100%,100%,100%);fill-opacity:1;stroke-width:0.4;stroke-linecap:butt;stroke-linejoin:round;stroke:rgb(0%,0%,0%);stroke-opacity:1;stroke-miterlimit:10;" d="M 48.001231 664.000658 L 43.999442 659.998869 Z M 48.001231 664.000658 " transform="matrix(1.429048,0,0,-1.429048,-45.44374,983.471119)"/>
<path style="fill-rule:evenodd;fill:rgb(100%,100%,100%);fill-opacity:1;stroke-width:0.4;stroke-linecap:butt;stroke-linejoin:round;stroke:rgb(0%,0%,0%);stroke-opacity:1;stroke-miterlimit:10;" d="M 52.000287 664.000658 L 48.001231 659.998869 Z M 52.000287 664.000658 " transform="matrix(1.429048,0,0,-1.429048,-45.44374,983.471119)"/>
<path style="fill-rule:evenodd;fill:rgb(100%,100%,100%);fill-opacity:1;stroke-width:0.4;stroke-linecap:butt;stroke-linejoin:round;stroke:rgb(0%,0%,0%);stroke-opacity:1;stroke-miterlimit:10;" d="M 55.999342 664.000658 L 52.000287 659.998869 Z M 55.999342 664.000658 " transform="matrix(1.429048,0,0,-1.429048,-45.44374,983.471119)"/>
<path style=" stroke:none;fill-rule:evenodd;fill:rgb(100%,100%,100%);fill-opacity:1;" d="M 25.292969 23.152344 C 25.292969 20.292969 21.007813 20.292969 21.007813 23.152344 C 21.007813 26.007813 25.292969 26.007813 25.292969 23.152344 Z M 25.292969 23.152344 "/>
<path style=" stroke:none;fill-rule:evenodd;fill:rgb(0%,0%,0%);fill-opacity:1;" d="M 25.722656 23.152344 C 25.722656 19.722656 20.578125 19.722656 20.578125 23.152344 C 20.578125 26.582031 25.722656 26.582031 25.722656 23.152344 Z M 24.867188 23.152344 C 24.867188 20.863281 21.4375 20.863281 21.4375 23.152344 C 21.4375 25.4375 24.867188 25.4375 24.867188 23.152344 Z M 24.867188 23.152344 "/>
</g>
</svg>
