<?xml version="1.0" encoding="UTF-8"?>
<svg xmlns="http://www.w3.org/2000/svg" xmlns:xlink="http://www.w3.org/1999/xlink" width="290pt" height="290pt" viewBox="0 0 290 290" version="1.1">
<g id="surface11500">
<path style=" stroke:none;fill-rule:evenodd;fill:rgb(100%,100%,100%);fill-opacity:1;" d="M 1.785156 1.785156 L 1.785156 287.40625 L 287.40625 287.40625 L 287.40625 1.785156 Z M 1.785156 1.785156 "/>
<path style="fill-rule:evenodd;fill:rgb(100%,100%,100%);fill-opacity:1;stroke-width:0.8;stroke-linecap:butt;stroke-linejoin:round;stroke:rgb(0%,0%,0%);stroke-opacity:1;stroke-miterlimit:10;" d="M 48.000148 671.999852 L 44.000112 664.000216 L 52.000185 664.000216 Z M 48.000148 671.999852 " transform="matrix(8.9257,0,0,-8.9257,-283.837246,6142.666436)"/>
<path style="fill:none;stroke-width:0.8;stroke-linecap:butt;stroke-linejoin:round;stroke:rgb(0%,0%,0%);stroke-opacity:1;stroke-miterlimit:10;" d="M 40.000075 662.000198 L 55.999784 662.000198 Z M 40.000075 662.000198 " transform="matrix(8.9257,0,0,-8.9257,-283.837246,6142.666436)"/>
<path style="fill-rule:evenodd;fill:rgb(100%,100%,100%);fill-opacity:1;stroke-width:0.4;stroke-linecap:butt;stroke-linejoin:round;stroke:rgb(0%,0%,0%);stroke-opacity:1;stroke-miterlimit:10;" d="M 44.000112 662.000198 L 40.000075 658.000161 Z M 44.000112 662.000198 " transform="matrix(8.9257,0,0,-8.9257,-283.837246,6142.666436)"/>
<path style="fill-rule:evenodd;fill:rgb(100%,100%,100%);fill-opacity:1;stroke-width:0.4;stroke-linecap:butt;stroke-linejoin:round;stroke:rgb(0%,0%,0%);stroke-opacity:1;stroke-miterlimit:10;" d="M 48.000148 662.000198 L 44.000112 658.000161 Z M 48.000148 662.000198 " transform="matrix(8.9257,0,0,-8.9257,-283.837246,6142.666436)"/>
<path style="fill-rule:evenodd;fill:rgb(100%,100%,100%);fill-opacity:1;stroke-width:0.4;stroke-linecap:butt;stroke-linejoin:round;stroke:rgb(0%,0%,0%);stroke-opacity:1;stroke-miterlimit:10;" d="M 52.000185 662.000198 L 48.000148 658.000161 Z M 52.000185 662.000198 " transform="matrix(8.9257,0,0,-8.9257,-283.837246,6142.666436)"/>
<path style="fill-rule:evenodd;fill:rgb(100%,100%,100%);fill-opacity:1;stroke-width:0.4;stroke-linecap:butt;stroke-linejoin:round;stroke:rgb(0%,0%,0%);stroke-opacity:1;stroke-miterlimit:10;" d="M 55.999784 662.000198 L 52.000185 658.000161 Z M 55.999784 662.000198 " transform="matrix(8.9257,0,0,-8.9257,-283.837246,6142.666436)"/>
<path style=" stroke:none;fill-rule:evenodd;fill:rgb(100%,100%,100%);fill-opacity:1;" d="M 157.984375 144.597656 C 157.984375 137.203125 151.992188 131.207031 144.597656 131.207031 C 137.203125 131.207031 131.207031 137.203125 131.207031 144.597656 C 131.207031 151.992188 137.203125 157.984375 144.597656 157.984375 C 151.992188 157.984375 157.984375 151.992188 157.984375 144.597656 Z M 157.984375 144.597656 "/>
<path style=" stroke:none;fill-rule:evenodd;fill:rgb(0%,0%,0%);fill-opacity:1;" d="M 160.664063 144.597656 C 160.664063 135.722656 153.46875 128.53125 144.597656 128.53125 C 135.722656 128.53125 128.53125 135.722656 128.53125 144.597656 C 128.53125 153.46875 135.722656 160.664063 144.597656 160.664063 C 153.46875 160.664063 160.664063 153.46875 160.664063 144.597656 Z M 155.308594 144.597656 C 155.308594 138.679688 150.511719 133.886719 144.597656 133.886719 C 138.679688 133.886719 133.886719 138.679688 133.886719 144.597656 C 133.886719 150.511719 138.679688 155.308594 144.597656 155.308594 C 150.511719 155.308594 155.308594 150.511719 155.308594 144.597656 Z M 155.308594 144.597656 "/>
<path style="fill:none;stroke-width:0.8;stroke-linecap:butt;stroke-linejoin:round;stroke:rgb(0%,0%,0%);stroke-opacity:1;stroke-miterlimit:10;" d="M 40.000075 664.000216 L 55.999784 664.000216 " transform="matrix(8.9257,0,0,-8.9257,-283.837246,6142.666436)"/>
</g>
</svg>
